<svg version="1.2" xmlns="http://www.w3.org/2000/svg" viewBox="0 0 600 500" width="600" height="500">
	<style>
		tspan { white-space:pre } 
		.s0 { fill: #ffffff } 
		.t1 { font-size: 90px;fill: #ffffff;font-family: "The Seasons" } 
		.t2 { font-size: 52px;fill: #ffffff;font-weight: 300;font-family: "Quicksand-Regular", "Quicksand" } 
	</style>
	<g id="Folder 1">
		<path id="Path 4" fill-rule="evenodd" class="s0" d="m317.51 127.97c0.84 2.45 1.26 5.02 1.68 7.6 0.42 2.63 0.89 5.27 1.73 7.9 0.84 2.58 1.98 5.09 3.36 7.43 1.43 2.33 3.11 4.55 5.26 6.34 1.08 0.96 2.28 1.68 3.54 2.34 1.19 0.65 2.51 1.13 3.89 1.49 1.37 0.36 2.81 0.54 4.25 0.3 0.72-0.12 1.43-0.3 2.09-0.66 0.66-0.3 1.26-0.77 1.74-1.37 0.48-0.66 0.66-1.38 0.78-2.1q0.09-1-0.18-2.09c-0.06-0.3-0.24-0.66-0.42-0.96-0.24-0.3-0.48-0.6-0.84-0.72q-0.54-0.17-1.08-0.06c-0.3 0.06-0.6 0.24-0.89 0.42 0.29-0.12 0.65-0.24 0.95-0.24q0.47-0.09 0.84 0.18c0.48 0.36 0.72 0.96 0.78 1.56q0.07 0.89-0.12 1.79c-0.18 0.6-0.42 1.14-0.78 1.5-0.42 0.36-0.9 0.72-1.44 0.9-0.53 0.24-1.07 0.3-1.67 0.36-1.2 0.06-2.4-0.18-3.59-0.54q-1.8-0.65-3.42-1.56c-1.07-0.66-2.09-1.32-2.99-2.16-1.8-1.67-3.35-3.71-4.67-5.86-1.32-2.22-2.39-4.55-3.29-6.95-0.84-2.33-1.44-4.91-2.04-7.48-0.6-2.58-1.25-5.21-2.39-7.66-1.14-2.46-2.76-4.79-4.91-6.35 1.79 1.92 2.99 4.25 3.83 6.65zm-65.44 24.06c-0.77 0.18-1.37 0.84-1.67 1.5-0.66 1.38-0.42 3.05 0.42 4.37 0.84 1.32 2.09 2.27 3.53 2.81 0.72 0.24 1.5 0.42 2.27 0.48 0.36 0.06 0.78 0.06 1.14 0 0.42-0.06 0.78-0.06 1.14-0.12 1.5-0.24 2.87-0.78 4.19-1.43 1.32-0.72 2.51-1.5 3.65-2.4 2.22-1.79 4.19-3.89 5.93-6.17 0.84-1.13 1.68-2.39 2.33-3.65q0.99-1.87 1.8-3.83c1.08-2.57 1.98-5.21 2.93-7.78 1.02-2.52 2.04-5.03 3.42-7.37 1.37-2.27 3.17-4.37 5.44-5.98-2.51 1.14-4.67 3.05-6.4 5.33-1.68 2.27-3 4.85-4.13 7.36-2.28 5.03-4.01 10.3-7.25 14.49-0.78 1.08-1.67 2.09-2.57 3.05-0.9 0.96-1.86 1.92-2.88 2.76-2.03 1.67-4.31 3.11-6.76 3.71-0.36 0.12-0.66 0.12-0.96 0.18q-0.45 0.07-0.9 0.06-0.89 0.01-1.79-0.24c-1.2-0.36-2.28-1.02-3.06-1.98-0.77-0.96-1.13-2.27-0.77-3.47 0.18-0.6 0.54-1.14 1.13-1.38 0.6-0.24 1.32-0.24 1.86 0.24-0.42-0.6-1.26-0.78-2.04-0.54z"/>
		<path id="Path 5" class="s0" d="m293.8 121.44c2.4-6.23 2.76-13.05 1.14-19.4-0.84-3.17-2.22-6.16-3.11-9.46-0.96-3.29-1.2-6.88-0.18-10.29 0.48-1.68 1.31-3.36 2.51-4.73 1.2-1.38 2.76-2.46 4.49-3.12 1.74-0.66 3.65-0.89 5.51-0.48 0.96 0.18 1.86 0.6 2.63 1.08 0.84 0.48 1.56 1.14 2.16 1.8 0.66 0.72 1.14 1.43 1.56 2.27 0.41 0.78 0.77 1.62 1.01 2.46 0.3 0.84 0.48 1.67 0.66 2.57 0.18 0.84 0.24 1.74 0.3 2.58 0.24 3.41-0.06 6.88-0.78 10.23-1.37 6.71-4.13 12.88-6.82 18.92-2.76 6.05-5.51 12.04-7.07 18.38-1.55 6.35-1.61 12.99-1.61 19.64 0 3.29 0 6.64 0.48 9.88 0.24 1.61 0.65 3.23 1.25 4.73q0.9 2.35 2.52 4.25-1.72-1.8-2.82-4.13c-0.71-1.5-1.19-3.12-1.55-4.79-0.72-3.3-0.84-6.65-1.02-10-0.12-3.29-0.24-6.65-0.18-10q0.07-5.03 1.14-10.06c2.87-13.35 10.83-24.6 13.35-37.41 0.66-3.18 0.96-6.41 0.78-9.58q-0.08-1.17-0.24-2.34-0.18-1.18-0.54-2.27-0.36-1.1-0.9-2.1c-0.36-0.66-0.72-1.32-1.26-1.86q-0.72-0.82-1.61-1.37c-0.6-0.36-1.26-0.66-1.92-0.84-1.38-0.3-2.87-0.18-4.31 0.36q-1.08 0.37-1.98 1.02c-0.59 0.42-1.19 0.89-1.67 1.43-1.02 1.08-1.74 2.46-2.22 3.95q-0.72 2.26-0.72 4.61c0 1.56 0.24 3.18 0.6 4.73 0.72 3.18 2.04 6.23 2.76 9.58 1.31 6.71 0.54 13.77-2.34 19.76z"/>
		<path id="Path 6" class="s0" d="m252.31 140.24c-2.75-10.9-3.29-22.45-1.61-33.71 1.55-11.25 5.33-22.21 10.83-32.21 1.38-2.45 2.88-4.91 4.55-7.24 0.78-1.2 1.68-2.34 2.52-3.47 0.42-0.6 0.9-1.14 1.31-1.68 0.42-0.54 0.9-1.14 1.38-1.68 3.65-4.37 7.78-8.38 12.21-11.91l1.68-1.32q0.81-0.61 1.62-1.31c1.08-0.9 2.09-1.8 3.17-2.76 2.04-1.85 4.01-3.83 5.81-5.92q1.34-1.61 2.51-3.3 1.17-1.72 2.16-3.53c0.66-1.2 1.2-2.51 1.61-3.83 0.48-1.32 0.84-2.7 1.02-4.07-0.12 2.81-0.78 5.63-1.85 8.26-1.08 2.63-2.52 5.15-4.25 7.42-1.68 2.28-3.6 4.43-5.63 6.47q-1.53 1.51-3.06 2.93-0.8 0.72-1.61 1.44l-1.62 1.38c-1.08 0.89-2.09 1.79-3.11 2.75q-0.79 0.72-1.5 1.44c-0.48 0.48-1.02 0.96-1.5 1.43-0.95 1.02-1.91 1.98-2.81 3.06-0.96 1.02-1.79 2.09-2.69 3.17-3.54 4.25-6.59 8.92-9.34 13.71-5.39 9.64-9.22 20.24-11.2 31.13-2.09 10.96-2.21 22.21-0.6 33.35z"/>
		<path id="Path 7" class="s0" d="m342.24 140.24c1.07-10.66 0.95-21.37-0.48-31.91-0.78-5.27-1.74-10.48-3.18-15.57-1.37-5.09-3.05-10.11-5.14-14.96q-3.06-7.29-7.19-14.13-2.06-3.42-4.31-6.65c-1.5-2.15-3.11-4.31-4.73-6.34-1.62-2.04-3.41-4.08-5.09-6.23-1.67-2.16-3.23-4.37-4.61-6.71-1.31-2.39-2.51-4.85-3.29-7.48-0.42-1.32-0.66-2.63-0.9-3.95-0.12-0.66-0.18-1.32-0.24-2.04l-0.18-1.97 0.36 1.97c0.18 0.66 0.3 1.32 0.48 1.98 0.36 1.26 0.78 2.57 1.26 3.77 0.96 2.46 2.27 4.79 3.71 6.95 1.44 2.21 3.11 4.25 4.85 6.28 1.74 2.04 3.53 3.95 5.33 5.99 3.59 4.07 6.76 8.44 9.7 13.05q4.31 6.9 7.54 14.43 3.16 7.54 5.15 15.44c1.31 5.27 2.27 10.6 2.75 15.99 1.02 10.72 0.48 21.61-1.79 32.09z"/>
		<path id="Path 8" class="s0" d="m338.04 74.14c0.54-1.73 1.38-3.35 2.4-4.85q1.62-2.23 3.77-4.01c1.44-1.13 3.05-2.15 4.73-2.93 1.74-0.78 3.53-1.26 5.27-1.62 3.53-0.77 6.94-1.13 9.94-2.39 3.05-1.2 5.57-3.65 8.26-5.99q-1.27 2.34-2.99 4.49c-0.6 0.72-1.2 1.38-1.92 1.98q-1.08 0.9-2.33 1.61c-1.62 0.96-3.42 1.56-5.15 2.04-1.74 0.48-3.48 0.78-5.21 1.2q-2.52 0.52-4.85 1.31c-1.56 0.6-3.05 1.32-4.43 2.22-1.44 0.9-2.76 1.91-4.01 3.11-1.26 1.08-2.4 2.4-3.48 3.83z"/>
		<path id="Path 9" class="s0" d="m372.83 52.11c-1.5 3.24-1.92 6.53-1.98 9.88-0.06 3.35 0.24 6.71 0.54 10.18 0.24 3.47 0.3 7.06-0.36 10.65-0.36 1.8-0.9 3.54-1.67 5.15-0.84 1.62-1.92 3.12-3.24 4.25 1.74-3.05 2.46-6.34 2.7-9.69 0.24-3.36 0-6.71-0.24-10.12-0.24-3.47-0.42-7.01 0.12-10.6q0.37-2.69 1.37-5.21c0.54-1.67 1.5-3.23 2.76-4.49z"/>
		<path id="Path 10" class="s0" d="m350.92 105.63c5.98-3.65 11.73-7.6 18.02-10.89 0.78-0.42 1.55-0.78 2.39-1.2 0.78-0.36 1.62-0.78 2.46-1.08 0.83-0.36 1.67-0.65 2.51-1.01q0.63-0.26 1.26-0.42l0.66-0.24 0.66-0.18c1.73-0.54 3.53-0.84 5.32-1.02q2.7-0.36 5.39-0.36c7.19-0.06 14.13 1.14 21.02 1.62 1.73 0.12 3.47 0.18 5.14 0.24 1.74 0 3.42-0.06 5.15-0.24 1.74-0.18 3.42-0.48 5.09-0.84 1.68-0.42 3.29-1.02 4.97-1.68-1.5 0.96-3.05 1.74-4.73 2.46-1.68 0.66-3.35 1.13-5.15 1.49-3.47 0.72-7.06 0.9-10.59 0.84-7.07-0.12-14.01-1.08-20.9-1.02-1.73 0-3.41 0.06-5.09 0.24q-2.53 0.27-4.97 0.9l-0.59 0.12-0.6 0.18c-0.42 0.12-0.78 0.24-1.2 0.36-0.84 0.3-1.62 0.54-2.4 0.84-1.61 0.6-3.17 1.26-4.79 1.97-6.34 2.88-12.51 6.29-19.03 8.92z"/>
		<path id="Path 11" class="s0" d="m431.98 88.33c-3.17 2.1-5.81 4.73-8.26 7.67-1.2 1.43-2.46 2.93-3.48 4.37-1.01 1.49-1.91 3.11-2.63 4.79-1.5 3.35-2.63 6.94-3.65 10.53-0.54 1.8-1.08 3.65-1.62 5.45-0.54 1.8-1.14 3.65-1.85 5.45-1.44 3.59-3.18 7.06-5.27 10.36-2.16 3.23-4.61 6.28-7.61 8.86l-1.13 0.95c-0.36 0.3-0.72 0.66-1.14 0.9l-1.2 0.84c-0.42 0.3-0.78 0.54-1.26 0.78l-1.25 0.72-0.66 0.36c-0.24 0.12-0.42 0.18-0.66 0.3l-1.32 0.59c-0.42 0.18-0.9 0.42-1.37 0.54-3.66 1.32-7.55 1.92-11.32 1.74 3.77-0.48 7.42-1.44 10.78-3.05 3.35-1.62 6.34-3.78 8.98-6.35 2.57-2.57 4.91-5.51 6.76-8.68 1.92-3.17 3.53-6.47 4.91-9.94 1.44-3.41 2.4-7.06 3.59-10.66 1.2-3.59 2.4-7.3 4.25-10.71 0.9-1.74 1.92-3.41 3.18-4.97 1.25-1.56 2.57-2.87 3.95-4.25 2.75-2.58 5.81-5.09 9.28-6.59z"/>
		<path id="Path 12" fill-rule="evenodd" class="s0" d="m360.79 156.16c3-1.97 6.53-3.17 10.18-3.59 3.65-0.36 7.37 0 10.9 0.84 3.59 0.84 6.94 2.15 10.3 3.65 3.29 1.5 6.46 3.29 9.57 5.03 6.29 3.65 11.86 8.2 17.67 12.21 2.87 2.04 5.86 3.95 8.98 5.51 3.11 1.62 6.46 2.88 9.93 3.65-3.59-0.18-7.12-1.07-10.53-2.33-3.36-1.32-6.59-2.99-9.64-4.91-6.17-3.77-11.8-8.08-17.84-11.62-3.06-1.79-6.11-3.53-9.28-5.08-3.11-1.56-6.35-2.94-9.7-3.96-3.29-1.01-6.77-1.67-10.24-1.61-3.53 0.06-7 0.84-10.3 2.21zm7.07 53.23c3.23 0.54 6.47 0.42 9.64-0.06 3.17-0.48 6.28-1.26 9.34-2.16 3.05-0.96 6.1-1.97 9.04-3.23 2.93-1.2 5.86-2.58 8.74-4.07q2.14-1.08 4.19-2.34c0.72-0.42 1.38-0.84 2.09-1.19q0.99-0.63 1.98-1.26c2.63-1.74 5.21-3.77 7.96-5.57 1.38-0.9 2.76-1.8 4.25-2.63 1.44-0.78 3-1.5 4.55-2.04 1.62-0.54 3.24-0.9 4.91-1.02 1.68-0.12 3.36 0.12 4.91 0.6q-2.44-0.27-4.79 0.18c-1.55 0.36-3.05 0.84-4.49 1.56-2.87 1.37-5.45 3.23-8.02 5.21l-3.83 2.99q-1.89 1.54-3.95 2.99c-0.66 0.48-1.38 0.96-2.1 1.38-0.72 0.42-1.38 0.9-2.09 1.32q-2.16 1.24-4.31 2.39c-2.94 1.5-5.99 2.88-9.04 4.07-3.12 1.14-6.29 2.16-9.52 2.88-3.24 0.71-6.47 1.25-9.82 1.43-3.17 0.06-6.53-0.3-9.64-1.43zm40.23-68.61c0.66-0.54 1.44-0.96 2.22-1.32 0.77-0.36 1.61-0.6 2.45-0.84 1.68-0.42 3.41-0.54 5.15-0.48 3.47 0.12 6.88 1.2 9.94 2.58q2.33 1.09 4.49 2.27 2.15 1.26 4.31 2.52c1.38 0.84 2.81 1.79 4.19 2.69 0.66 0.42 1.38 0.84 2.09 1.08 0.72 0.24 1.5 0.36 2.34 0.12-0.3 0.24-0.72 0.42-1.14 0.54-0.42 0.12-0.9 0.12-1.32 0.12-0.89-0.06-1.73-0.3-2.57-0.6-1.62-0.6-3.11-1.26-4.61-1.92-3.05-1.31-5.99-2.87-8.92-4.19-2.93-1.32-5.87-2.45-8.98-2.99-3.23-0.48-6.41-0.48-9.64 0.42z"/>
		<path id="Path 13" fill-rule="evenodd" class="s0" d="m418.81 165.98c1.61 0.06 3.29-0.06 4.91-0.6 1.67-0.54 3.11-1.49 4.37-2.45 1.25-0.96 2.39-1.98 3.59-2.99q1.71-1.52 3.41-3.12c1.14-1.08 2.22-2.15 3.29-3.11q0.8-0.72 1.68-1.26c0.6-0.36 1.26-0.6 1.98-0.9 0.71-0.3 1.49-0.6 2.21-0.95 0.36-0.18 0.72-0.42 1.02-0.66 0.3-0.24 0.6-0.54 0.78-0.9-0.66 0.42-1.38 0.66-2.1 0.78-0.72 0.12-1.49 0.18-2.27 0.3-0.78 0.12-1.56 0.24-2.4 0.54-0.84 0.29-1.55 0.71-2.27 1.13q-1.08 0.72-1.98 1.44-0.9 0.72-1.79 1.44c-1.2 0.95-2.4 1.97-3.54 2.99l-1.73 1.56c-0.54 0.48-1.14 1.01-1.68 1.49-1.14 0.96-2.21 1.86-3.47 2.46-2.46 1.26-5.57 1.49-8.68 2.03q2.33 0.53 4.67 0.78zm-162.84-96.75q-1.62-2.23-3.78-4.01c-1.43-1.19-2.99-2.15-4.73-2.93-1.73-0.72-3.53-1.26-5.26-1.62-3.48-0.77-6.89-1.13-9.94-2.39-3.06-1.14-5.57-3.65-8.26-5.99 0.83 1.62 1.85 3.06 2.99 4.49 0.6 0.72 1.2 1.38 1.92 1.98q1.07 0.9 2.33 1.61c1.62 0.96 3.41 1.56 5.15 2.04 1.79 0.48 3.53 0.84 5.21 1.2q2.51 0.52 4.85 1.31c1.49 0.6 2.99 1.32 4.43 2.22 1.43 0.9 2.75 1.97 4.01 3.11 1.26 1.14 2.39 2.46 3.47 3.89-0.54-1.73-1.38-3.35-2.39-4.91z"/>
		<path id="Path 14" class="s0" d="m223.58 52.11c1.25 1.26 2.21 2.82 2.87 4.49 0.72 1.68 1.14 3.41 1.38 5.21 0.54 3.59 0.36 7.13 0.12 10.6-0.24 3.41-0.48 6.82-0.24 10.12 0.24 3.35 0.9 6.58 2.69 9.69-1.38-1.13-2.45-2.63-3.23-4.25-0.84-1.61-1.32-3.35-1.68-5.15-0.66-3.53-0.6-7.12-0.36-10.65 0.24-3.47 0.6-6.83 0.54-10.18-0.18-3.35-0.6-6.7-2.09-9.88z"/>
		<path id="Path 15" class="s0" d="m245.49 105.63c-6.53-2.57-12.69-6.04-18.98-8.86q-2.35-1.07-4.79-1.97c-0.78-0.3-1.62-0.6-2.39-0.84-0.42-0.12-0.78-0.24-1.2-0.36l-0.6-0.18-0.6-0.12q-2.44-0.63-4.97-0.9c-1.67-0.18-3.35-0.24-5.09-0.24-6.82-0.06-13.77 0.9-20.89 1.02-3.53 0.06-7.12-0.18-10.6-0.84-1.73-0.36-3.47-0.83-5.15-1.49-1.67-0.66-3.23-1.5-4.73-2.46 1.62 0.66 3.3 1.26 4.97 1.68 1.68 0.42 3.36 0.72 5.09 0.84 1.74 0.18 3.41 0.24 5.15 0.24 1.74 0 3.41-0.06 5.15-0.24 6.88-0.48 13.83-1.68 21.01-1.62q2.7 0 5.39 0.36c1.8 0.24 3.59 0.54 5.33 1.02l0.66 0.18 0.66 0.24c0.42 0.18 0.9 0.3 1.25 0.42q1.26 0.46 2.52 1.01c0.84 0.36 1.62 0.72 2.45 1.08 0.78 0.42 1.62 0.78 2.4 1.2 6.22 3.17 11.97 7.12 17.96 10.83z"/>
		<path id="Path 16" class="s0" d="m164.37 88.33c3.53 1.5 6.52 4.01 9.28 6.65 1.37 1.38 2.69 2.69 3.95 4.25 1.26 1.56 2.21 3.23 3.17 4.97 1.8 3.47 3.05 7.12 4.25 10.71 1.2 3.6 2.16 7.25 3.59 10.66 1.38 3.47 3 6.77 4.91 9.94 1.92 3.17 4.19 6.05 6.77 8.68 2.63 2.57 5.63 4.73 8.98 6.35 3.35 1.61 7 2.57 10.77 3.05-3.77 0.18-7.66-0.42-11.31-1.74-0.48-0.12-0.9-0.36-1.38-0.54l-1.31-0.59c-0.24-0.12-0.48-0.18-0.66-0.3l-0.66-0.36-1.26-0.72q-0.63-0.35-1.26-0.78l-1.19-0.84c-0.42-0.24-0.78-0.6-1.14-0.9l-1.14-0.95c-2.99-2.58-5.45-5.63-7.6-8.86-2.1-3.24-3.83-6.77-5.27-10.36-0.72-1.8-1.32-3.65-1.86-5.45q-0.8-2.77-1.61-5.45c-1.02-3.65-2.16-7.18-3.65-10.53-0.78-1.68-1.62-3.3-2.64-4.79-1.02-1.5-2.27-2.94-3.47-4.37-2.4-3-5.03-5.69-8.26-7.73z"/>
		<path id="Path 17" fill-rule="evenodd" class="s0" d="m235.61 156.16c-3.29-1.43-6.76-2.15-10.24-2.15-3.47-0.06-6.88 0.6-10.23 1.61-3.3 1.02-6.53 2.4-9.7 3.96-3.18 1.55-6.23 3.29-9.28 5.08-6.05 3.54-11.74 7.85-17.84 11.62-3.06 1.86-6.29 3.59-9.64 4.91-3.36 1.32-6.95 2.15-10.54 2.33 3.47-0.83 6.83-2.03 9.94-3.65 3.11-1.56 6.11-3.47 8.98-5.51 5.81-4.01 11.37-8.56 17.66-12.21 3.11-1.8 6.29-3.53 9.58-5.03 3.29-1.5 6.7-2.81 10.3-3.65 3.53-0.84 7.24-1.26 10.89-0.84 3.59 0.36 7.13 1.56 10.12 3.53zm-7.12 53.23c-3.06 1.13-6.47 1.49-9.76 1.37-3.36-0.12-6.59-0.66-9.82-1.43-3.23-0.72-6.41-1.74-9.52-2.88-3.11-1.19-6.11-2.51-9.04-4.07-1.44-0.78-2.93-1.55-4.31-2.39-0.72-0.42-1.44-0.84-2.1-1.32-0.71-0.42-1.43-0.9-2.09-1.38-1.38-0.95-2.64-1.97-3.95-2.99l-3.83-2.99c-2.58-1.98-5.15-3.84-8.03-5.21-1.43-0.72-2.93-1.2-4.49-1.56q-2.35-0.45-4.79-0.18c1.56-0.48 3.24-0.72 4.91-0.6 1.68 0.12 3.36 0.48 4.91 1.02 1.56 0.54 3.12 1.26 4.55 2.04 1.44 0.77 2.88 1.67 4.25 2.63 2.76 1.8 5.33 3.83 7.97 5.57q0.98 0.63 1.97 1.26c0.72 0.41 1.38 0.83 2.1 1.19 1.37 0.84 2.81 1.56 4.19 2.34 2.81 1.49 5.74 2.81 8.74 4.07 2.93 1.26 5.98 2.27 9.04 3.23 3.05 0.9 6.22 1.74 9.34 2.16 3.29 0.54 6.52 0.66 9.76 0.12zm-40.18-68.61c-3.23-0.96-6.46-0.9-9.51-0.36-3.12 0.54-6.05 1.67-8.98 2.99-2.94 1.32-5.87 2.88-8.93 4.19-1.49 0.66-2.99 1.32-4.61 1.92-0.83 0.3-1.67 0.54-2.57 0.6-0.42 0-0.9 0-1.32-0.12-0.42-0.12-0.83-0.3-1.13-0.54 0.83 0.24 1.61 0.12 2.33-0.12 0.72-0.24 1.44-0.66 2.1-1.08q2.05-1.35 4.19-2.69c1.43-0.84 2.81-1.68 4.31-2.52q2.15-1.27 4.49-2.27c3.05-1.38 6.46-2.46 9.94-2.58 1.73-0.06 3.47 0.06 5.14 0.48 0.84 0.24 1.68 0.48 2.46 0.84 0.66 0.36 1.44 0.78 2.09 1.26z"/>
		<path id="Path 18" fill-rule="evenodd" class="s0" d="m182.21 165.2c-1.56 0.36-3.06 0.6-4.67 0.66-1.62 0.06-3.23-0.06-4.91-0.6-1.62-0.54-3.05-1.43-4.37-2.45-1.26-1.02-2.4-1.98-3.59-2.99-1.14-1.02-2.34-2.04-3.42-3.12-1.13-1.02-2.21-2.15-3.29-3.11-0.54-0.48-1.14-0.9-1.68-1.26-0.59-0.36-1.25-0.6-1.97-0.9-0.72-0.3-1.5-0.53-2.22-0.95-0.36-0.18-0.71-0.42-1.01-0.66-0.3-0.24-0.6-0.54-0.78-0.9 0.66 0.48 1.37 0.66 2.09 0.78 0.72 0.12 1.5 0.24 2.28 0.3 0.78 0.12 1.61 0.24 2.39 0.54 0.78 0.3 1.56 0.71 2.28 1.13 0.72 0.42 1.32 0.96 1.97 1.44q0.9 0.72 1.8 1.44c1.2 0.95 2.39 1.97 3.53 2.99l1.74 1.56c0.6 0.54 1.14 1.01 1.67 1.49 1.14 0.96 2.22 1.86 3.48 2.46 2.51 1.38 5.62 1.67 8.68 2.15zm114.53 15.69c-2.34-0.84-4.55-1.8-6.77-2.87-2.21-1.08-4.31-2.28-6.47-3.48-2.15-1.19-4.31-2.33-6.52-3.29q-3.32-1.45-6.83-2.45c-2.33-0.66-4.67-1.2-7.06-1.44-2.39-0.24-4.79-0.12-7.06 0.48-2.28 0.6-4.37 1.67-6.05 3.17-1.68 1.56-2.93 3.59-3.47 5.75-0.54 2.15-0.36 4.49 0.65 6.46 0.48 0.96 1.2 1.8 2.04 2.58 0.84 0.72 1.8 1.38 2.81 1.85 2.04 1.02 4.37 1.62 6.71 2.1 2.33 0.42 4.73 0.78 7.12 0.84 4.79 0.18 9.58-0.24 14.31-1.2 4.73-0.9 9.34-2.33 13.83-4.13 4.43-1.8 8.62-4.25 12.81-6.77 4.19-2.51 8.39-5.14 12.94-7.18 2.27-1.02 4.61-1.92 7.06-2.51 2.45-0.6 5.09-0.9 7.66-0.66 2.58 0.24 5.15 1.01 7.37 2.33 2.21 1.32 4.19 3.06 5.68 5.27 0.72 1.08 1.32 2.28 1.68 3.53 0.36 1.26 0.54 2.64 0.36 3.95-0.12 1.32-0.54 2.64-1.26 3.78-0.66 1.13-1.55 2.15-2.45 3.05-1.86 1.74-4.19 3.05-6.65 3.71-2.45 0.66-5.03 0.78-7.54 0.54-2.52-0.24-4.91-0.78-7.3-1.5-2.4-0.72-4.67-1.55-6.95-2.39-2.27-0.9-4.55-1.86-6.82-2.76-2.28-0.95-4.55-1.85-6.89-2.57 4.73 1.2 9.28 3.11 13.89 4.73 4.61 1.56 9.34 2.99 14.13 3.29 2.39 0.12 4.79 0 7.06-0.66 2.22-0.65 4.31-1.85 5.93-3.53 0.84-0.84 1.56-1.67 2.1-2.69 0.53-0.96 0.83-2.04 0.95-3.18 0.18-2.21-0.6-4.43-1.85-6.28-1.32-1.86-3.12-3.41-5.09-4.55-1.98-1.14-4.25-1.8-6.53-1.98-2.27-0.18-4.67 0.06-6.88 0.66-2.28 0.6-4.49 1.5-6.71 2.46-4.37 2.03-8.5 4.61-12.63 7.12-4.19 2.57-8.44 5.09-13.11 7-4.61 1.8-9.4 3.3-14.25 4.2-4.91 0.95-9.88 1.37-14.91 1.13-2.51-0.12-4.97-0.48-7.42-0.96-2.45-0.53-4.91-1.19-7.24-2.39-1.14-0.6-2.28-1.32-3.24-2.21-0.95-0.9-1.85-1.98-2.45-3.18-1.26-2.45-1.38-5.33-0.66-7.84 0.72-2.58 2.16-4.85 4.13-6.59 1.98-1.73 4.37-2.87 6.89-3.41 2.51-0.54 5.08-0.6 7.54-0.3 2.51 0.3 4.91 0.9 7.24 1.68 2.34 0.78 4.67 1.67 6.89 2.75 2.21 1.08 4.37 2.34 6.46 3.59 4.08 2.52 8.27 5.09 12.82 6.95zm98.36-114.95c0.06-0.06 0.18-0.12 0.3-0.12 1.32-0.3 2.27-0.9 3.05-1.61 0.66-0.6 0.9-1.32 0.9-2.1 0-0.18-0.24-1.32 0.42-1.2 0.48 0.06 0.3 1.14 0.36 1.38 0.36 1.5 1.73 2.69 3.95 3.23 0.24 0.06 0.6 0 0.6 0.24 0 0.12-0.3 0.18-0.54 0.24-2.4 0.6-3.47 2.22-3.83 3.77-0.06 0.3-0.06 0.54-0.06 0.84 0 0.3-0.9 0.36-0.84 0.06 0.12-1.08-0.06-1.61-0.3-2.27-0.36-1.2-1.68-1.8-3.47-2.16q-0.27-0.01-0.54-0.12c-0.18-0.06-0.18-0.24 0-0.18zm41.67 56.58c0.06-0.06 0.18-0.12 0.3-0.12 1.31-0.3 2.27-0.9 3.05-1.62 0.66-0.6 0.9-1.32 0.9-2.09 0-0.18-0.24-1.32 0.42-1.2 0.48 0.06 0.3 1.14 0.36 1.38 0.36 1.49 1.73 2.69 3.95 3.23 0.24 0.06 0.6 0 0.6 0.24 0 0.12-0.3 0.18-0.54 0.24-2.4 0.6-3.47 2.21-3.83 3.77-0.06 0.3-0.06 0.54-0.06 0.84 0 0.3-0.9 0.36-0.84 0.06 0.12-1.08-0.06-1.62-0.3-2.28-0.36-1.2-1.68-1.79-3.47-2.15q-0.27-0.02-0.54-0.12c-0.12-0.06-0.12-0.18 0-0.18zm-184.1-85.37c0.06-0.06 0.18-0.12 0.3-0.12 1.32-0.3 2.28-0.9 3.06-1.62 0.65-0.6 0.89-1.32 0.89-2.1 0-0.18-0.24-1.31 0.42-1.19 0.48 0.06 0.3 1.13 0.36 1.37 0.36 1.5 1.74 2.7 3.95 3.24 0.24 0.06 0.6 0 0.6 0.24 0 0.12-0.3 0.18-0.54 0.24-2.39 0.59-3.47 2.21-3.83 3.77-0.06 0.3-0.06 0.54-0.06 0.83 0 0.3-0.9 0.36-0.84 0.06 0.12-1.07-0.06-1.61-0.3-2.27-0.36-1.2-1.67-1.8-3.47-2.16q-0.27-0.01-0.54-0.12c-0.18-0.06-0.18-0.17 0-0.17z"/>
		<path id="Path 19" fill-rule="evenodd" class="s0" d="m154.67 116.59c0.06-0.06 0.18-0.12 0.3-0.12 1.31-0.3 2.27-0.9 3.05-1.62 0.66-0.59 0.9-1.31 0.9-2.09 0-0.18-0.24-1.32 0.42-1.2 0.48 0.06 0.3 1.14 0.36 1.38 0.36 1.5 1.73 2.69 3.95 3.23 0.24 0.06 0.6 0 0.6 0.24 0 0.12-0.3 0.18-0.54 0.24-2.4 0.6-3.47 2.22-3.83 3.77-0.06 0.3-0.06 0.54-0.06 0.84 0 0.3-0.9 0.36-0.84 0.06 0.12-1.08-0.06-1.62-0.3-2.27-0.36-1.2-1.68-1.8-3.47-2.16q-0.27-0.02-0.54-0.12c-0.12-0.06-0.12-0.24 0-0.18zm184.57-83.99c3.12 0 3.12 4.84 0 4.84-3.17 0-3.17-4.84 0-4.84z"/>
		<path id="Path 20" fill-rule="evenodd" class="s0" d="m199.15 64.39c3.11 0 3.11 4.84 0 4.84-3.11 0-3.11-4.84 0-4.84zm245.64 102.43c2.33 0 2.33 3.65 0 3.65-2.39 0-2.39-3.65 0-3.65zm-297.13 4.55c-0.36-0.36-0.54-0.84-0.54-1.32 0-0.48 0.24-1.01 0.54-1.31 0.36-0.36 0.84-0.54 1.32-0.54q0.36 0 0.72 0c0.54 0 0.96 0.24 1.32 0.54 0.36 0.35 0.54 0.83 0.54 1.31 0 0.48-0.24 1.02-0.54 1.32-0.36 0.36-0.84 0.54-1.32 0.54q-0.36 0-0.72 0-0.7 0-1.32-0.54zm246.42 62.14c0-2.33 3.65-2.33 3.65 0q0 0.04 0 0.06c0 0.02 0 0.28 0 0.3 0 2.34-3.65 2.34-3.65 0q0-0.03 0-0.06c0-0.02 0-0.28 0-0.3z"/>
		<path id="Path 21" fill-rule="evenodd" class="s0" d="m194.24 229.92l-2.57 2.58q0 0 0 0c-0.87-0.87-0.65-1.95 0-2.6 0.64-0.65 1.7-0.88 2.51-0.04l0.06 0.06q0 0 0 0l-2.57 2.58c-0.87-0.87-0.65-1.95 0-2.6 0.64-0.65 1.7-0.88 2.51-0.04q0.04 0.04 0.06 0.06zm100.16 14.97c0.06-0.06 0.18-0.12 0.3-0.12 1.32-0.3 2.28-0.9 3.05-1.62 0.66-0.6 0.9-1.32 0.9-2.09 0-0.18-0.24-1.32 0.42-1.2 0.48 0.06 0.3 1.14 0.36 1.38 0.36 1.49 1.74 2.69 3.95 3.23 0.24 0.06 0.6 0 0.6 0.24 0 0.12-0.3 0.18-0.54 0.24-2.39 0.6-3.47 2.21-3.83 3.77-0.06 0.3-0.06 0.54-0.06 0.84 0 0.3-0.9 0.36-0.84 0.06 0.12-1.08-0.06-1.62-0.3-2.28-0.36-1.19-1.67-1.79-3.47-2.15q-0.27-0.02-0.54-0.12c-0.12-0.06-0.12-0.18 0-0.18zm35.14-22.81c2.34 0 2.34 3.65 0 3.65-2.33 0-2.33-3.65 0-3.65z"/>
		<path id="Path 22" fill-rule="evenodd" class="s0" d="m264.17 222.08c2.33 0 2.33 3.65 0 3.65-2.4 0-2.4-3.65 0-3.65zm-33.77 20.89c2.34 0 2.34 3.65 0 3.65-2.39 0-2.33-3.65 0-3.65zm128.36 3c2.33 0 2.33 3.65 0 3.65-2.34 0-2.34-3.65 0-3.65z"/>
		<text id="Kamer Y端zer" style="transform: matrix(1,0,0,1,13.969,329.38)" >
			<tspan x="0" y="0" class="t1">Kamer Y端zer
</tspan>
		</text>
		<text id="G端zellik Evi" style="transform: matrix(1,0,0,1,169.172,402.34)" >
			<tspan x="0" y="0" class="t2">G端zellik Evi
</tspan>
		</text>
	</g>
</svg>